<?xml version="1.0" standalone="no"?>
<!DOCTYPE svg PUBLIC "-//W3C//DTD SVG 20010904//EN"
 "http://www.w3.org/TR/2001/REC-SVG-20010904/DTD/svg10.dtd">
<svg version="1.0" xmlns="http://www.w3.org/2000/svg"
 width="438.000000pt" height="438.000000pt" viewBox="0 0 438.000000 438.000000"
 preserveAspectRatio="xMidYMid meet">
<metadata>
Created by potrace 1.14, written by Peter Selinger 2001-2017
</metadata>
<g transform="translate(0.000000,438.000000) scale(0.100000,-0.100000)"
fill="#000000" stroke="none">
<path d="M2079 4262 c-8 -2 -21 -6 -29 -9 -8 -4 -17 -7 -20 -8 -179 -48 -399
-320 -554 -685 -11 -25 -30 -68 -42 -97 -13 -28 -25 -62 -27 -75 -1 -13 -8
-33 -15 -45 -22 -39 -10 -52 28 -28 8 5 21 10 30 11 8 1 24 5 35 7 190 49 322
62 660 62 335 0 480 -15 655 -65 36 -11 70 -20 75 -21 6 0 16 -5 23 -11 17
-15 15 -5 -14 70 -79 206 -174 409 -198 424 -6 4 -7 8 -2 8 5 0 2 8 -7 18 -10
10 -14 22 -10 25 3 4 1 7 -5 7 -7 0 -12 7 -12 15 0 9 -7 18 -15 21 -8 4 -15
12 -15 19 0 8 -6 20 -13 27 -7 7 -21 26 -31 42 -35 55 -129 155 -186 197 -32
24 -99 62 -110 64 -3 0 -11 4 -17 8 -7 5 -13 6 -13 3 0 -3 -12 0 -27 6 -28 11
-117 18 -144 10z"/>
<path d="M1938 3305 c-2 -1 -49 -5 -105 -8 -256 -15 -473 -82 -473 -146 0 -27
54 -127 103 -190 43 -56 200 -218 228 -236 69 -43 120 -83 124 -96 5 -14 8
-198 6 -335 l-1 -51 -75 0 -75 0 -1 233 c-1 129 -2 240 -3 247 -1 15 -47 14
-166 -2 -90 -12 -121 -17 -148 -25 -9 -3 -33 -7 -52 -10 -37 -6 -68 -12 -110
-21 -14 -4 -36 -8 -50 -11 -106 -21 -191 -64 -255 -129 -59 -60 -75 -83 -97
-134 -11 -25 -23 -55 -28 -66 -5 -11 -19 -49 -30 -85 -12 -36 -26 -74 -31 -85
-10 -23 -78 -223 -84 -245 -2 -8 -4 -15 -4 -15 -1 0 -25 -71 -55 -157 -30 -87
-52 -158 -49 -158 3 0 -1 -7 -8 -16 -7 -9 -14 -21 -15 -28 -1 -6 -14 -47 -29
-91 -60 -176 -34 -343 71 -460 80 -88 262 -275 268 -275 3 0 4 15 1 33 -2 17
-7 57 -9 87 -17 176 -18 186 -31 272 -6 49 -15 135 -20 208 -3 36 -7 72 -10
80 -4 17 -13 104 -20 194 -8 116 55 213 155 239 14 4 591 7 1283 7 1211 0
1260 0 1301 -18 93 -42 135 -115 130 -224 -2 -39 -5 -85 -8 -102 -4 -29 -11
-91 -21 -191 -9 -87 -17 -161 -21 -185 -2 -14 -6 -52 -10 -84 -3 -33 -7 -63
-10 -68 -3 -4 1 -8 8 -8 10 0 10 -2 1 -8 -7 -4 -12 -16 -11 -27 0 -11 -2 -40
-6 -64 -11 -67 -15 -141 -8 -141 4 0 27 22 52 49 25 26 89 95 144 152 66 69
107 122 124 159 14 30 30 66 36 79 6 13 10 67 10 120 -2 86 -7 110 -47 229
-25 72 -42 132 -39 132 4 0 2 4 -3 8 -6 4 -25 52 -43 107 -18 55 -36 107 -39
115 -3 8 -7 20 -9 25 -1 6 -18 55 -37 110 -131 377 -146 415 -159 415 -5 0 -6
4 -3 10 3 5 -5 21 -19 35 -15 14 -26 29 -26 33 0 16 -96 92 -153 120 -52 26
-201 64 -297 77 -14 1 -43 8 -65 13 -86 22 -268 44 -292 35 -10 -4 -13 -62
-13 -244 l0 -239 -22 -5 c-13 -2 -45 -3 -73 -2 l-50 2 -3 180 c-3 189 1 225
21 225 6 0 24 10 39 23 14 12 36 29 48 37 39 26 186 173 234 233 52 65 114
174 111 197 -1 8 -3 21 -3 27 -3 23 -103 76 -165 87 -7 1 -25 5 -42 9 -41 9
-73 14 -136 22 -30 3 -72 8 -94 11 -45 6 -532 14 -537 9z"/>
<path d="M916 1679 c-70 -12 -72 -28 -41 -289 11 -89 27 -230 31 -280 3 -30
10 -60 16 -67 7 -9 7 -13 -1 -13 -7 0 -10 -8 -7 -17 3 -10 8 -38 10 -63 3 -25
10 -86 16 -136 6 -50 13 -107 15 -125 2 -19 4 -34 5 -34 1 0 3 -22 5 -50 10
-117 15 -146 30 -175 33 -64 -33 -60 1142 -59 948 1 1071 2 1103 16 37 16 68
63 55 83 -3 5 -2 10 3 10 5 0 9 6 9 13 1 26 13 154 17 187 6 40 23 191 31 265
3 28 9 86 15 130 5 44 12 110 15 147 3 37 8 77 10 90 3 12 7 54 11 93 3 38 7
84 9 100 17 131 17 133 -4 154 -12 12 -31 21 -43 22 -13 0 -160 0 -328 0 -168
-1 -332 -1 -365 0 -264 4 -1415 3 -1415 -1 0 -4 -11 -6 -25 -6 -14 0 -25 2
-25 6 0 3 -29 5 -65 5 -36 0 -65 -2 -65 -6 0 -5 -94 -2 -115 4 -5 2 -28 0 -49
-4z m1354 -444 c7 -8 9 -15 4 -15 -4 0 -3 -5 4 -12 6 -6 8 -16 3 -22 -4 -6
-25 -56 -46 -111 -22 -55 -42 -104 -45 -110 -4 -5 -13 -31 -21 -57 -7 -27 -17
-48 -22 -48 -4 0 -6 -4 -3 -9 17 -26 -75 -42 -100 -17 -18 19 -14 48 16 126
12 30 22 61 23 68 0 6 4 12 9 12 4 0 8 6 8 14 0 8 5 27 12 43 6 15 12 30 13
33 2 5 6 17 36 93 10 23 17 27 54 27 26 0 48 -6 55 -15z m-306 -88 c15 -42 -3
-77 -54 -105 -25 -14 -47 -27 -50 -29 -8 -7 32 -33 41 -27 5 3 9 0 9 -5 0 -6
7 -11 15 -11 9 0 18 -7 21 -15 4 -8 10 -12 15 -9 12 7 11 -63 -1 -87 -16 -30
-43 -23 -163 39 -129 66 -137 72 -137 105 0 44 10 55 88 94 43 20 79 40 82 43
13 14 78 38 100 36 17 -1 28 -10 34 -29z m466 1 c30 -14 60 -27 65 -28 6 -1
21 -10 35 -19 14 -9 37 -23 53 -31 30 -15 43 -46 33 -84 -5 -19 -33 -38 -126
-85 -66 -34 -126 -61 -134 -61 -36 0 -65 77 -36 95 6 4 8 11 5 16 -4 5 -1 9 6
9 24 0 88 35 89 48 0 7 -8 16 -17 19 -10 4 -21 10 -24 15 -3 5 -15 10 -27 11
-25 1 -40 31 -38 75 2 56 31 61 116 20z"/>
<path d="M1053 278 c-9 -10 -19 -15 -24 -13 -10 7 -40 -36 -33 -47 3 -4 0 -8
-7 -8 -16 0 -2 -70 19 -94 42 -46 7 -44 1132 -44 1125 0 1091 -1 1131 44 52
58 19 151 -58 168 -24 6 -1193 9 -1918 7 -66 -1 -144 0 -173 2 -40 1 -57 -2
-69 -15z"/>
</g>
</svg>
